HIERARCHY
ROOT ROOT
{
	OFFSET 0.000000 56.020000 -5.659234
	CHANNELS 6 Xposition Yposition Zposition Xrotation Yrotation Zrotation 
	JOINT C_spine0001_bind_JNT
	{
		OFFSET 0.000000 1.618999 0.000000
		CHANNELS 3 Xrotation Yrotation Zrotation
		JOINT C_spine0002_bind_JNT
		{
			OFFSET 0.000000 4.942001 0.000001
			CHANNELS 3 Xrotation Yrotation Zrotation
			JOINT C_spine0003_bind_JNT
			{
				OFFSET 0.000000 4.942001 -0.000000
				CHANNELS 3 Xrotation Yrotation Zrotation
				JOINT C_neck0001_bind_JNT
				{
					OFFSET 0.000000 17.026009 -0.000000
					CHANNELS 3 Xrotation Yrotation Zrotation
					JOINT C_neck0002_bind_JNT
					{
						OFFSET 0.000000 3.249985 0.000000
						CHANNELS 3 Xrotation Yrotation Zrotation
						JOINT C_head_bind_JNT
						{
							OFFSET 0.000000 5.278008 0.000000
							CHANNELS 3 Xrotation Yrotation Zrotation
							End Site
							{
								OFFSET 0.000000 0.000000 0.000000
							}
						}
					}
				}
				JOINT L_clavicle_bind_JNT
				{
					OFFSET 4.590000 12.067001 0.834000
					CHANNELS 3 Xrotation Yrotation Zrotation
					JOINT L_armUpper0001_bind_JNT
					{
						OFFSET 7.812635 0.512001 -3.452945
						CHANNELS 3 Xrotation Yrotation Zrotation
						JOINT L_armLower0001_bind_JNT
						{
							OFFSET 15.265892 -6.552116 -0.058157
							CHANNELS 3 Xrotation Yrotation Zrotation
							JOINT L_hand0001_bind_JNT
							{
								OFFSET 14.747667 -6.369995 5.049225
								CHANNELS 3 Xrotation Yrotation Zrotation
								End Site
								{
									OFFSET 0.000000 0.000000 0.000000
								}
							}
						}
					}
				}
				JOINT R_clavicle_bind_JNT
				{
					OFFSET -4.590000 12.067001 0.834000
					CHANNELS 3 Xrotation Yrotation Zrotation
					JOINT R_armUpper0001_bind_JNT
					{
						OFFSET -7.812635 0.512001 -3.452945
						CHANNELS 3 Xrotation Yrotation Zrotation
						JOINT R_armLower0001_bind_JNT
						{
							OFFSET -15.265890 -6.552124 -0.058160
							CHANNELS 3 Xrotation Yrotation Zrotation
							JOINT R_hand0001_bind_JNT
							{
								OFFSET -14.746784 -6.369629 5.048937
								CHANNELS 3 Xrotation Yrotation Zrotation
								End Site
								{
									OFFSET 0.000000 0.000000 0.000000
								}
							}
						}
					}
				}
			}
		}
	}
	JOINT C_pelvis0001_bind_JNT
	{
		OFFSET -0.000000 0.000000 0.000000
		CHANNELS 3 Xrotation Yrotation Zrotation
		JOINT L_legUpper0001_bind_JNT
		{
			OFFSET 6.599999 -6.027000 0.539000
			CHANNELS 3 Xrotation Yrotation Zrotation
			JOINT L_legLower0001_bind_JNT
			{
				OFFSET -0.140713 -19.187443 0.040261
				CHANNELS 3 Xrotation Yrotation Zrotation
				JOINT L_foot0001_bind_JNT
				{
					OFFSET -0.132215 -18.028637 -1.138370
					CHANNELS 3 Xrotation Yrotation Zrotation
					JOINT L_foot0002_bind_JNT
					{
						OFFSET 0.007014 -4.693133 9.886524
						CHANNELS 3 Xrotation Yrotation Zrotation
						End Site
						{
							OFFSET 0.000000 0.000000 0.000000
						}
					}
				}
			}
		}
		JOINT R_legUpper0001_bind_JNT
		{
			OFFSET -6.599999 -6.027000 0.539000
			CHANNELS 3 Xrotation Yrotation Zrotation
			JOINT R_legLower0001_bind_JNT
			{
				OFFSET 0.140710 -19.187164 0.040550
				CHANNELS 3 Xrotation Yrotation Zrotation
				JOINT R_foot0001_bind_JNT
				{
					OFFSET 0.132215 -18.028633 -1.138362
					CHANNELS 3 Xrotation Yrotation Zrotation
					JOINT R_foot0002_bind_JNT
					{
						OFFSET -0.007014 -4.693128 9.886505
						CHANNELS 3 Xrotation Yrotation Zrotation
						End Site
						{
							OFFSET 0.000000 0.000000 0.000000
						}
					}
				}
			}
		}
	}
}
MOTION
Frames: 8
Frame Time: 0.033333
0.000000 48.472527 0.000000 0.027773 -10.475501 -0.057097 4.728356 11.207863 2.033740 -4.878325 0.039381 0.622348 3.212737 0.169532 0.610824 19.291836 -3.460250 -1.303120 -0.509623 -0.119610 -0.234748 -2.122617 -5.179514 -3.236462 11.667403 2.697112 13.704556 -16.830515 5.670966 -77.754860 7.023114 13.513386 -3.894723 -4.553023 -13.997904 -23.774223 9.066228 -1.506749 -14.457966 -12.138329 -10.071012 74.021027 6.009021 -15.723624 3.334614 1.889842 15.921066 20.014326 6.748903 11.438235 0.811009 -10.447494 2.501519 3.197807 15.671595 -0.813348 -0.221860 -8.494445 -4.728671 -4.189865 -3.767566 -0.560553 -0.448324 -8.452465 -7.218008 -3.733047 16.643255 -2.292288 -0.483243 -12.409333 12.033980 1.022247 -2.930087 2.156340 -0.158221 
-0.120869 48.576641 0.162755 0.015879 -9.817975 -0.024614 4.313322 10.269562 2.468854 -4.749256 -0.285164 1.017573 3.348098 0.052788 0.842540 18.621922 -3.159266 -2.050270 0.275258 -0.414329 -0.219805 -1.714403 -5.019383 -3.481271 11.475115 3.313499 13.753837 -16.027435 5.910926 -78.534821 5.999732 12.581140 -3.562309 -3.984370 -12.715641 -23.260786 8.929744 -1.370721 -14.927142 -12.286702 -10.122392 74.644386 4.778415 -15.971073 2.272679 3.815207 15.951151 19.675077 6.689733 10.215371 0.786861 -11.787946 2.932391 3.571264 18.906191 0.582361 -0.390686 -8.782611 -5.610802 -3.749530 -5.504820 0.007917 -0.734447 -8.286678 -7.650340 -3.212554 16.723637 -1.746244 -1.022345 -13.139797 12.809855 1.166435 -2.682105 2.068130 -0.062908 
-0.228588 48.620808 0.292989 0.019109 -9.915292 -0.029483 4.351820 10.080884 2.781190 -4.852882 -0.360077 1.146385 3.614973 0.002197 0.921205 18.901810 -3.018140 -1.840357 0.079038 -0.220810 -0.195317 -1.488096 -5.206753 -3.613492 10.836574 3.150042 14.199480 -14.832463 6.583835 -78.288406 5.461249 12.108603 -4.125458 -4.151512 -12.355453 -23.396795 8.713417 -1.459879 -14.727851 -11.719321 -10.375046 74.375275 4.201969 -15.410272 2.683880 4.558251 15.243863 19.327814 6.376472 10.023383 1.017507 -12.613872 2.871764 3.818701 22.197489 0.836672 -0.441026 -8.949604 -5.658155 -3.832267 -7.514347 0.103468 -0.935096 -8.876559 -7.769567 -3.508489 18.059767 -1.209301 -1.000395 -13.585428 13.266053 1.025366 -2.628838 2.229276 -0.058250 
-0.275420 48.612679 0.547209 0.025885 -10.163345 -0.023704 4.341846 10.063142 3.031970 -4.679022 -0.212732 1.268940 3.541774 -0.019473 1.113761 19.112720 -3.009116 -1.953560 0.108604 -0.499353 -0.252747 -1.309149 -4.995111 -3.584653 10.818417 3.298835 14.207404 -14.524687 6.461593 -77.878639 5.175691 12.279629 -4.641979 -4.220710 -12.720024 -23.300879 8.734450 -1.564338 -14.766204 -11.592638 -10.279613 73.918747 3.719908 -14.964691 3.223868 4.652253 15.020020 19.302645 6.294446 9.956799 1.144599 -14.415865 2.698186 3.942524 25.584480 1.188654 -0.566404 -8.004545 -6.221998 -4.321772 -9.901989 0.259636 -0.605525 -8.912948 -7.522398 -3.578660 18.464134 -0.987019 -1.065233 -13.809251 13.368190 1.118381 -2.638404 2.159140 -0.250198 
-0.245771 48.592308 0.774513 0.024565 -10.592072 -0.019412 4.569428 10.394343 3.363432 -4.599626 -0.202795 1.210260 3.854423 0.086954 1.112550 19.195866 -2.902212 -1.986593 0.229536 -0.378885 -0.080469 -1.007922 -5.087493 -3.654432 10.404621 3.305590 14.206461 -13.709152 6.759820 -77.328941 4.926269 11.817268 -5.119982 -4.272352 -12.721913 -23.156458 8.559525 -1.725898 -14.519982 -11.718534 -10.472530 73.428230 3.182620 -14.600362 3.618220 4.572601 15.287723 19.249668 6.357447 9.932019 1.416186 -16.836390 2.368433 3.707904 29.496792 1.359195 -0.623637 -6.049883 -6.823277 -4.274064 -12.765622 0.007980 -0.306996 -9.557538 -7.594356 -4.101991 19.481590 -0.351346 -1.379029 -14.116240 13.291956 1.302251 -2.859968 2.227003 -0.282263 
-0.093541 48.545422 1.049880 0.009797 -10.856127 -0.018341 4.947010 10.472877 3.735099 -4.609302 -0.110589 1.275076 4.038085 0.143617 1.272655 19.564821 -2.927098 -1.931826 0.113365 -0.461964 -0.223885 -0.772633 -4.996557 -3.807494 10.161735 3.328467 14.364131 -12.938094 7.079481 -77.166573 4.850084 11.170631 -5.705349 -4.114631 -12.631878 -23.109114 8.549028 -1.773560 -14.561337 -11.903715 -10.611257 72.958885 2.997721 -13.704151 4.263212 4.492328 14.964873 19.219463 6.463409 9.933196 1.677893 -19.029602 2.291738 3.803725 33.185913 1.202765 -0.877923 -4.362511 -8.283643 -4.321649 -14.147248 0.061279 0.167844 -9.792391 -7.661624 -4.627232 20.146606 -0.044975 -1.751495 -14.503016 13.443925 1.749101 -3.086673 2.234357 -0.342258 
0.100222 48.526726 1.319703 0.026014 -10.762705 -0.023471 5.294930 10.197340 4.140186 -4.335059 -0.047123 1.242649 4.146019 0.246659 1.416019 19.997091 -2.858481 -2.045690 0.103520 -0.376540 -0.152906 -0.293822 -5.002892 -3.702404 9.971105 3.208673 14.521417 -11.715645 7.668179 -76.985229 4.437162 10.345304 -6.077999 -3.655697 -12.212421 -22.929134 8.369099 -2.022753 -14.456110 -12.210567 -10.265989 72.532959 2.423527 -13.135092 4.473969 4.344300 14.849424 19.426802 6.557541 9.417035 1.770672 -21.446138 2.233175 3.951660 36.730244 1.129505 -1.067766 -3.168025 -9.233685 -4.815137 -14.651467 -0.532467 0.799955 -10.098791 -7.443503 -5.016400 20.722715 0.299844 -2.116928 -15.017900 13.804358 2.183261 -3.173603 2.219147 -0.417460 
0.311200 48.542416 1.627831 0.018320 -10.899289 -0.025524 5.911127 10.040576 4.493603 -4.355276 -0.017685 1.172502 4.347262 0.306800 1.568477 20.172136 -2.810331 -2.092534 0.112483 -0.324359 -0.143395 0.528473 -4.895982 -3.663603 9.658553 3.034472 14.730629 -10.521006 8.301191 -76.916870 3.846806 9.713809 -6.314076 -3.405700 -11.702542 -22.809046 8.233208 -2.165848 -14.341098 -12.784265 -9.976021 71.900909 1.712520 -13.268438 4.678579 4.435430 14.905775 19.508076 6.910337 9.177980 1.756027 -23.450027 2.505976 4.500496 39.398029 0.470541 -0.999808 -3.149660 -10.168838 -5.247075 -13.744163 -0.960018 0.918893 -10.189116 -7.465764 -5.363922 20.935431 0.747887 -2.265741 -15.535186 14.138921 2.561677 -3.214589 2.178831 -0.319570 
